<svg xmlns="http://www.w3.org/2000/svg" viewBox="0 0 424.06 481"><defs><style>.cls-1{fill:#edf0f1;}.cls-2{fill:none;}</style></defs><g id="Layer_2" data-name="Layer 2"><path class="cls-1" d="M518.5,251.5c-.94-17.56-14.47-33.63-34-40h-79q-.5-13-1-26a62.48,62.48,0,0,0-7-12,63.72,63.72,0,0,0-21-18h-134a39.08,39.08,0,0,0-15,5c-13.85,8.08-18,22.34-19,26q-.5,12-1,24h-78a41.7,41.7,0,0,0-21,10,43,43,0,0,0-13,41c5.15,22.74,26.73,30.56,28,31q13,153,26,306a43.56,43.56,0,0,0,10,23c11.26,13.16,26.71,14.74,30,15h237a44.08,44.08,0,0,0,20-8c12.5-9.13,16.08-22.13,17-26q13-155.5,26-311a34.57,34.57,0,0,0,14-6C519.33,273.89,518.57,252.8,518.5,251.5Zm-283-55c.45-3.19.87-6.16,3-9,3.83-5.12,10.25-5.86,12-6l108,1a17,17,0,0,1,18,8v20h-140A34,34,0,0,1,235.5,196.5Zm201,394a15.66,15.66,0,0,1-16,18h-228a17.37,17.37,0,0,1-16-20l-24-294h309Q449,442.51,436.5,590.5Zm39-323-339-1c-6.14.32-11.77-2.47-14-7-3.16-6.43.55-16.37,10-20l338-1c8.67-2.11,17,2.94,19,10C491.74,256.48,485.65,266.27,475.5,267.5Z" transform="translate(-94.47 -155.5)"/><path class="cls-2" d="M236.5,210.5a34,34,0,0,1-1-14c.45-3.19.87-6.16,3-9,3.83-5.12,10.25-5.86,12-6l108,1a17,17,0,0,1,18,8v20Z" transform="translate(-94.47 -155.5)"/><path class="cls-2" d="M461.5,294.5h-309l24,294a17.37,17.37,0,0,0,16,20h228a15.66,15.66,0,0,0,16-18Q449,442.5,461.5,294.5Zm-226,286c-6.13.11-12-4.35-14-11q-6.5-118-13-236a14.36,14.36,0,0,1,27-1q7,116,14,232C249.84,573.32,243.05,580.36,235.5,580.5Zm85-13a14,14,0,0,1-28,0v-231c1-7.85,7.78-13.46,15-13a14.49,14.49,0,0,1,13,12Zm71-1c-1.15,8.2-7.64,14-14,14-7.81.06-15.71-8.5-14-19l15-228a13.83,13.83,0,0,1,27,2Q398.5,451,391.5,566.5Z" transform="translate(-94.47 -155.5)"/><path class="cls-2" d="M475.5,267.5l-339-1c-6.14.32-11.77-2.47-14-7-3.16-6.43.55-16.37,10-20l338-1c8.67-2.11,17,2.94,19,10C491.74,256.48,485.65,266.27,475.5,267.5Z" transform="translate(-94.47 -155.5)"/><path class="cls-2" d="M376.5,190.5v20h-140a34,34,0,0,1-1-14c.45-3.19.87-6.16,3-9,3.83-5.12,10.25-5.86,12-6l108,1a17,17,0,0,1,18,8Z" transform="translate(-94.47 -155.5)"/><path class="cls-2" d="M475.5,267.5l-339-1c-6.14.32-11.77-2.47-14-7-3.16-6.43.55-16.37,10-20l338-1c8.67-2.11,17,2.94,19,10C491.74,256.48,485.65,266.27,475.5,267.5Z" transform="translate(-94.47 -155.5)"/><path class="cls-2" d="M461.5,294.5h-309l24,294a17.37,17.37,0,0,0,16,20h228a15.66,15.66,0,0,0,16-18Q449,442.5,461.5,294.5Zm-226,286c-6.13.11-12-4.35-14-11q-6.5-118-13-236a14.36,14.36,0,0,1,27-1q7,116,14,232C249.84,573.32,243.05,580.36,235.5,580.5Zm85-13a14,14,0,0,1-28,0v-231c1-7.85,7.78-13.46,15-13a14.49,14.49,0,0,1,13,12Zm71-1c-1.15,8.2-7.64,14-14,14-7.81.06-15.71-8.5-14-19l15-228a13.83,13.83,0,0,1,27,2Q398.5,451,391.5,566.5Z" transform="translate(-94.47 -155.5)"/><path class="cls-1" d="M405.5,335.5q-7,115.5-14,231c-1.15,8.2-7.64,14-14,14-7.81.06-15.71-8.5-14-19l15-228a13.83,13.83,0,0,1,27,2Z" transform="translate(-94.47 -155.5)"/><path class="cls-1" d="M320.5,335.5v232a14,14,0,0,1-28,0v-231c1-7.85,7.78-13.46,15-13A14.49,14.49,0,0,1,320.5,335.5Z" transform="translate(-94.47 -155.5)"/><path class="cls-1" d="M249.5,564.5c.34,8.82-6.45,15.86-14,16-6.13.11-12-4.35-14-11q-6.5-118-13-236a14.36,14.36,0,0,1,27-1Q242.51,448.5,249.5,564.5Z" transform="translate(-94.47 -155.5)"/></g></svg>