<svg id="Layer_2" data-name="Layer 2" xmlns="http://www.w3.org/2000/svg" viewBox="0 0 369.78 382.09"><defs><style>.cls-1{fill:#fff;}.cls-1,.cls-2{stroke:#fff;}.cls-2{fill:none;}</style></defs><path class="cls-1" d="M480.3,406.38a38.17,38.17,0,0,0,4.59-18.89c-.74-24-26.27-37.59-29.61-39.32-11.95-6.16-22.77-6.46-33.71-6.64-37.13-.61-58.28,15.88-65.87,7.15-2.75-3.17-1.7-9.31.51-21.45,3-16.51,7.32-25.28,10.22-34.21,3.13-9.66,11.85-36.52,0-59.23-.65-1.24-11.06-20.48-32.17-26-5.66-1.48-12.93-3.4-19.41,0-10,5.25-9.16,18.42-14.3,40.35-4.36,18.63-10.57,32-23,58.72-9.1,19.61-13.66,29.42-21.44,38.3s-14.27,13-23,25a119.59,119.59,0,0,0-13.28,23.49L206.6,390l-56.69-1a36.81,36.81,0,0,0-14.29,6.64,37.9,37.9,0,0,0-13.28,19.91l1,138.39c-.07,1.57-.4,12.31,8.17,20.42a27,27,0,0,0,19.41,7.15l54.63,1A37.91,37.91,0,0,1,234.68,579c39.58,1.49,71.29,4,93.45,6.13a361.51,361.51,0,0,0,72.51,0c15.48-1.6,29.5-4.13,42.89-13.79,5.39-3.89,16.08-11.83,20.94-26.55A49.6,49.6,0,0,0,466,520.26,45.64,45.64,0,0,0,477.23,507c10.43-18.78,3.53-38.85,2-42.89a39,39,0,0,0,9.7-14.81C496.51,428.26,481.9,408.48,480.3,406.38ZM214.77,549.87a16.13,16.13,0,0,1-4.09,8.68,15.9,15.9,0,0,1-6.13,4.09l-51.06-1a12.21,12.21,0,0,1-7.66-3.07c-4.9-4.48-3.66-11.32-3.57-11.74,2.16-78.44,2-117,0-124.6-.26-1-1.55-5.32.51-9.19,1.85-3.49,5.71-5.22,9.19-6.13l52.59.51a18.85,18.85,0,0,1,6.13,4.6,19.34,19.34,0,0,1,4.6,11.23Zm251.23-98c-3.83,5.31-7.56,6.15-8.17,10.72-.65,4.87,3.27,6.18,5.11,12.26,2.89,9.61-1.55,24.09-10.22,31.15-2.88,2.34-6.78,4.32-7.66,8.68a11.25,11.25,0,0,0,1,6.64c3.62,9.3-3.71,23.25-7.66,28.59-2.38,3.21-9.28,11.09-40.86,14.81-26.93,3.18-47,.51-47,.51-25.58-3.4-61.52-6.48-115.41-8.17,2.58-85.46,1.92-121,0-132.25a41.09,41.09,0,0,1,0-15.32c1.78-9.1,6.49-15.77,10.21-20.94,4-5.5,5.08-5.6,13.28-15.32,0,0,4.53-5.36,10.21-12.76,8.07-10.5,25.45-42.63,44.94-87.32a54.4,54.4,0,0,0,9.19-23c1.85-13-2.36-20.64,1.53-23.49,4.6-3.36,17.07,2.39,23.49,11.74,2.22,3.24,6.64,11.16,3.07,34.73-3.33,21.94-12.89,52.92-17.37,75.06-.47,2.35-1.39,7.21,1,11.74,4.23,8,15.75,9.34,18.89,9.71,11.13,1.32,14.61-2.8,29.62-6.13,11.68-2.59,24.47-1.9,50-.51,6.82.37,11.34.78,16.34,3.57C457.49,370.93,465,380.31,464,389c-.37,3.12-1.5,3.4-3.07,10.21-1.24,5.4-1.95,8.52-1.53,11.75,1.07,8.18,8.23,8,11.24,16.34C473.48,435.29,470.55,445.51,466,451.83Z" transform="translate(-121.84 -205.34)"/><path class="cls-2" d="M215.28,423.23l-.51,126.64a16.13,16.13,0,0,1-4.09,8.68,15.9,15.9,0,0,1-6.13,4.09l-51.06-1a12.21,12.21,0,0,1-7.66-3.07c-4.9-4.48-3.66-11.32-3.57-11.74,2.16-78.44,2-117,0-124.6-.26-1-1.55-5.32.51-9.19,1.85-3.49,5.71-5.22,9.19-6.13l52.59.51a18.85,18.85,0,0,1,6.13,4.6A19.34,19.34,0,0,1,215.28,423.23Z" transform="translate(-121.84 -205.34)"/><path class="cls-2" d="M457.83,462.55c-.65,4.87,3.27,6.18,5.11,12.26,2.89,9.61-1.55,24.09-10.22,31.15-2.88,2.34-6.78,4.32-7.66,8.68a11.25,11.25,0,0,0,1,6.64c3.62,9.3-3.71,23.25-7.66,28.59-2.38,3.21-9.28,11.09-40.86,14.81-26.93,3.18-47,.51-47,.51-25.58-3.4-61.52-6.48-115.41-8.17,2.58-85.46,1.92-121,0-132.25a41.09,41.09,0,0,1,0-15.32c1.78-9.1,6.49-15.77,10.21-20.94,4-5.5,5.08-5.6,13.28-15.32,0,0,4.53-5.36,10.21-12.76,8.07-10.5,25.45-42.63,44.94-87.32a54.4,54.4,0,0,0,9.19-23c1.85-13-2.36-20.64,1.53-23.49,4.6-3.36,17.07,2.39,23.49,11.74,2.22,3.24,6.64,11.16,3.07,34.73-3.33,21.94-12.89,52.92-17.37,75.06-.47,2.35-1.39,7.21,1,11.74,4.23,8,15.75,9.34,18.89,9.71,11.13,1.32,14.61-2.8,29.62-6.13,11.68-2.59,24.47-1.9,50-.51,6.82.37,11.34.78,16.34,3.57C457.49,370.93,465,380.31,464,389c-.37,3.12-1.5,3.4-3.07,10.21-1.24,5.4-1.95,8.52-1.53,11.75,1.07,8.18,8.23,8,11.24,16.34,2.88,8-.05,18.19-4.6,24.51C462.17,457.14,458.44,458,457.83,462.55Z" transform="translate(-121.84 -205.34)"/><path class="cls-2" d="M215.28,423.23l-.51,126.64a16.13,16.13,0,0,1-4.09,8.68,15.9,15.9,0,0,1-6.13,4.09l-51.06-1a12.21,12.21,0,0,1-7.66-3.07c-4.9-4.48-3.66-11.32-3.57-11.74,2.16-78.44,2-117,0-124.6-.26-1-1.55-5.32.51-9.19,1.85-3.49,5.71-5.22,9.19-6.13l52.59.51a18.85,18.85,0,0,1,6.13,4.6A19.34,19.34,0,0,1,215.28,423.23Z" transform="translate(-121.84 -205.34)"/><path class="cls-2" d="M457.83,462.55c-.65,4.87,3.27,6.18,5.11,12.26,2.89,9.61-1.55,24.09-10.22,31.15-2.88,2.34-6.78,4.32-7.66,8.68a11.25,11.25,0,0,0,1,6.64c3.62,9.3-3.71,23.25-7.66,28.59-2.38,3.21-9.28,11.09-40.86,14.81-26.93,3.18-47,.51-47,.51-25.58-3.4-61.52-6.48-115.41-8.17,2.58-85.46,1.92-121,0-132.25a41.09,41.09,0,0,1,0-15.32c1.78-9.1,6.49-15.77,10.21-20.94,4-5.5,5.08-5.6,13.28-15.32,0,0,4.53-5.36,10.21-12.76,8.07-10.5,25.45-42.63,44.94-87.32a54.4,54.4,0,0,0,9.19-23c1.85-13-2.36-20.64,1.53-23.49,4.6-3.36,17.07,2.39,23.49,11.74,2.22,3.24,6.64,11.16,3.07,34.73-3.33,21.94-12.89,52.92-17.37,75.06-.47,2.35-1.39,7.21,1,11.74,4.23,8,15.75,9.34,18.89,9.71,11.13,1.32,14.61-2.8,29.62-6.13,11.68-2.59,24.47-1.9,50-.51,6.82.37,11.34.78,16.34,3.57C457.49,370.93,465,380.31,464,389c-.37,3.12-1.5,3.4-3.07,10.21-1.24,5.4-1.95,8.52-1.53,11.75,1.07,8.18,8.23,8,11.24,16.34,2.88,8-.05,18.19-4.6,24.51C462.17,457.14,458.44,458,457.83,462.55Z" transform="translate(-121.84 -205.34)"/></svg>