<svg xmlns="http://www.w3.org/2000/svg" viewBox="0 0 447.48 449.1"><defs><style>.cls-1{fill:#edf0f1;}.cls-2{fill:none;}</style></defs><g id="Layer_2" data-name="Layer 2"><path class="cls-1" d="M537.5,569.5l-130-129a155.15,155.15,0,0,0,14-18c30.25-45.46,27.92-94.68,27-107-5.22-69.7-51.89-112-61-120-10-8.76-60.07-50.49-133-44-85.65,7.62-129.76,75.25-134,82-47.8,76.12-16.2,155.38-13,163,3.77,9,34.45,78.78,114,102,85.62,25,153.26-25.75,160-31l128,126c6.61,7.36,17.61,8.44,25,3C542.66,590.5,544.4,578,537.5,569.5Zm-264-99c-85.54,1.28-155.59-83-142-166,10.48-64,68.75-115.71,135-117,81.5-1.59,152.07,73.55,144,156C403.67,413.25,342.38,469.47,273.5,470.5Z" transform="translate(-94.3 -150.82)"/><path class="cls-2" d="M410.5,343.5c-6.83,69.75-68.12,126-137,127-85.54,1.28-155.59-83-142-166,10.48-64,68.75-115.71,135-117C348,185.91,418.57,261.05,410.5,343.5Z" transform="translate(-94.3 -150.82)"/><path class="cls-2" d="M410.5,343.5c-6.83,69.75-68.12,126-137,127-85.54,1.28-155.59-83-142-166,10.48-64,68.75-115.71,135-117C348,185.91,418.57,261.05,410.5,343.5Z" transform="translate(-94.3 -150.82)"/></g></svg>